<?xml version="1.0" encoding="UTF-8"?>
<svg width="18px" height="18px" viewBox="0 0 18 18" version="1.1" xmlns="http://www.w3.org/2000/svg" xmlns:xlink="http://www.w3.org/1999/xlink">
    <!-- Generator: Sketch 41.2 (35397) - http://www.bohemiancoding.com/sketch -->
    <title>Facebook</title>
    <g id="Page-1" stroke="none" stroke-width="1" fill="none" fill-rule="evenodd">
        <g id="home" transform="translate(-26.000000, -2376.000000)" fill="#FFF">
            <g id="footer" transform="translate(0.000000, 1983.000000)">
                <path d="M30.9900998,393 C28.2341438,393 26,395.243318 26,397.9901 L26,406.0099 C26,408.765856 28.2433178,411 30.9900998,411 L39.0099002,411 C41.7658562,411 44,408.756682 44,406.0099 L44,397.9901 C44,395.234144 41.7566822,393 39.0099002,393 L30.9900998,393 Z M37.6547207,404.137611 L37.6547207,411 L34.7605783,411 L34.7605783,404.137611 L32.75,404.137611 L32.75,401.666879 L34.7605783,401.666879 L34.7605783,399.556746 C34.7605783,397.897996 35.94869,396.375 38.6839789,396.375 C39.7921938,396.375 40.6118405,396.470877 40.6118405,396.470877 L40.5469832,398.778703 C40.5469832,398.778703 39.7113571,398.771067 38.8005341,398.771067 C37.8135742,398.771067 37.6556607,399.181724 37.6556607,399.863042 L37.6556607,399.976736 L37.6556607,401.666879 L40.625,401.666879 L40.4952853,404.137611 L37.6547207,404.137611 Z" id="Rectangle-79-copy"></path>
            </g>
        </g>
    </g>
</svg>