<?xml version="1.0" encoding="UTF-8"?>
<svg width="89px" height="32px" viewBox="0 0 89 32" version="1.1" xmlns="http://www.w3.org/2000/svg" xmlns:xlink="http://www.w3.org/1999/xlink">
    <!-- Generator: Sketch 44.1 (41455) - http://www.bohemiancoding.com/sketch -->
    <title>Group 2</title>
    <desc>Created with Sketch.</desc>
    <defs></defs>
    <g id="Token-website" stroke="none" stroke-width="1" fill="none" fill-rule="evenodd">
        <g id="Group-3" fill="#000000">
            <g id="Group-2">
                <path d="M42.7162852,11.739989 L42.7162852,21.2812131 L45.2901205,21.2812131 L45.2901205,11.739989 L48.7984057,11.739989 L48.7984057,9.576 L39.208,9.576 L39.208,11.739989 L42.7162852,11.739989 Z M51.9624199,17.0515983 C51.9624199,17.3904063 51.9952072,17.7210124 52.060783,18.0434265 C52.1263587,18.3658407 52.2383823,18.6554625 52.396857,18.9123009 C52.5553318,19.1691393 52.7657175,19.3740604 53.0280205,19.5270705 C53.2903235,19.6800806 53.6181973,19.7565845 54.0116518,19.7565845 C54.4051063,19.7565845 54.7357125,19.6800806 55.0034801,19.5270705 C55.2712478,19.3740604 55.4843658,19.1691393 55.6428405,18.9123009 C55.8013152,18.6554625 55.9133388,18.3658407 55.9789145,18.0434265 C56.0444903,17.7210124 56.0772777,17.3904063 56.0772777,17.0515983 C56.0772777,16.7127902 56.0444903,16.3794518 55.9789145,16.0515731 C55.9133388,15.7236943 55.8013152,15.4340724 55.6428405,15.1826987 C55.4843658,14.931325 55.2712478,14.7264038 55.0034801,14.5679291 C54.7357125,14.4094544 54.4051063,14.3302182 54.0116518,14.3302182 C53.6181973,14.3302182 53.2903235,14.4094544 53.0280205,14.5679291 C52.7657175,14.7264038 52.5553318,14.931325 52.396857,15.1826987 C52.2383823,15.4340724 52.1263587,15.7236943 52.060783,16.0515731 C51.9952072,16.3794518 51.9624199,16.7127902 51.9624199,17.0515983 Z M49.6344923,17.0515983 C49.6344923,16.3739822 49.738319,15.7592187 49.9459756,15.2072895 C50.1536321,14.6553602 50.4487186,14.1854077 50.8312438,13.7974179 C51.213769,13.409428 51.6727924,13.108877 52.2083277,12.8957558 C52.743863,12.6826346 53.344965,12.5760756 54.0116518,12.5760756 C54.6783386,12.5760756 55.282173,12.6826346 55.8231729,12.8957558 C56.3641729,13.108877 56.8259285,13.409428 57.2084537,13.7974179 C57.5909789,14.1854077 57.8860654,14.6553602 58.0937219,15.2072895 C58.3013785,15.7592187 58.4052052,16.3739822 58.4052052,17.0515983 C58.4052052,17.7292144 58.3013785,18.3412455 58.0937219,18.8877101 C57.8860654,19.4341747 57.5909789,19.9013949 57.2084537,20.2893848 C56.8259285,20.6773747 56.3641729,20.9751934 55.8231729,21.1828499 C55.282173,21.3905065 54.6783386,21.4943332 54.0116518,21.4943332 C53.344965,21.4943332 52.743863,21.3905065 52.2083277,21.1828499 C51.6727924,20.9751934 51.213769,20.6773747 50.8312438,20.2893848 C50.4487186,19.9013949 50.1536321,19.4341747 49.9459756,18.8877101 C49.738319,18.3412455 49.6344923,17.7292144 49.6344923,17.0515983 Z M61.7167641,18.5270453 L59.5035935,18.5270453 C59.5254521,19.0953685 59.6538694,19.5680533 59.8888492,19.9451138 C60.1238289,20.3221744 60.4243799,20.6254577 60.7905112,20.8549728 C61.1566425,21.084488 61.5746816,21.2484249 62.0446412,21.3467885 C62.5146007,21.4451521 62.9954824,21.4943332 63.4873005,21.4943332 C63.9681894,21.4943332 64.4408741,21.4478844 64.905369,21.3549854 C65.3698639,21.2620864 65.7824385,21.1008818 66.1431052,20.8713667 C66.5037718,20.6418516 66.796126,20.3385683 67.0201764,19.9615077 C67.2442269,19.5844471 67.3562505,19.1172269 67.3562505,18.559833 C67.3562505,18.1663785 67.2797466,17.8357724 67.1267365,17.5680047 C66.9737264,17.3002371 66.7715376,17.07619 66.5201638,16.8958566 C66.2687901,16.7155233 65.9819005,16.5707124 65.6594864,16.4614195 C65.3370723,16.3521265 65.0064662,16.259229 64.6676581,16.1827239 C64.3397794,16.1062189 64.0173701,16.0351795 63.7004206,15.9696038 C63.3834712,15.904028 63.1020461,15.8302564 62.8561371,15.7482867 C62.610228,15.666317 62.4107714,15.559758 62.2577613,15.4286065 C62.1047512,15.297455 62.0282473,15.1280536 62.0282473,14.920397 C62.0282473,14.7455283 62.0719639,14.606182 62.1593982,14.5023537 C62.2468325,14.3985254 62.3533915,14.3192892 62.4790784,14.2646428 C62.6047652,14.2099963 62.7441116,14.1744766 62.8971217,14.1580827 C63.0501318,14.1416888 63.1922105,14.1334919 63.323362,14.1334919 C63.738675,14.1334919 64.0993363,14.2127281 64.4053564,14.3712028 C64.7113766,14.5296776 64.8807781,14.8329609 64.913566,15.2810618 L67.1267365,15.2810618 C67.0830193,14.7564558 66.9491375,14.322023 66.725087,13.9777503 C66.5010366,13.6334776 66.2196115,13.3575171 65.8808035,13.1498606 C65.5419954,12.942204 65.1567437,12.7946608 64.7250366,12.7072265 C64.2933296,12.6197921 63.8479676,12.5760756 63.3889374,12.5760756 C62.9299071,12.5760756 62.4818129,12.6170599 62.0446412,12.6990295 C61.6074695,12.7809992 61.2140209,12.9230779 60.8642836,13.1252698 C60.5145462,13.3274617 60.2331212,13.6034222 60.02,13.9531595 C59.8068788,14.3028969 59.7003198,14.7509911 59.7003198,15.2974557 C59.7003198,15.6690516 59.7768237,15.983264 59.9298338,16.2401024 C60.0828439,16.4969408 60.2850327,16.7100588 60.5364065,16.8794628 C60.7877802,17.0488668 61.0746698,17.1854809 61.3970839,17.2893092 C61.719498,17.3931374 62.0501041,17.4833028 62.3889122,17.5598078 C63.2195384,17.7346765 63.8670892,17.9095425 64.3315841,18.0844112 C64.796079,18.2592799 65.028323,18.5215789 65.028323,18.8713163 C65.028323,19.0789728 64.9791419,19.2511066 64.8807783,19.3877227 C64.7824146,19.5243389 64.6594619,19.6336302 64.5119165,19.7155998 C64.3643711,19.7975695 64.2004341,19.8576797 64.0201008,19.8959323 C63.8397675,19.9341848 63.6676337,19.9533108 63.5036944,19.9533108 C63.2741792,19.9533108 63.0528644,19.9259879 62.8397432,19.8713415 C62.626622,19.816695 62.4380946,19.7319943 62.2741552,19.6172367 C62.1102158,19.5024791 61.976334,19.3549359 61.8725057,19.1746026 C61.7686774,18.9942693 61.7167641,18.778419 61.7167641,18.5270453 Z M68.7169405,9.576 L68.7169405,21.2812131 L71.0448681,21.2812131 L71.0448681,16.8384781 C71.0448681,15.9750641 71.1869467,15.3548361 71.4711083,14.9777755 C71.7552699,14.6007149 72.2142933,14.4121875 72.8481922,14.4121875 C73.4055861,14.4121875 73.7935701,14.5843212 74.012156,14.9285939 C74.2307418,15.2728666 74.3400331,15.7947325 74.3400331,16.4942072 L74.3400331,21.2812131 L76.6679606,21.2812131 L76.6679606,16.0679669 C76.6679606,15.5433609 76.6215118,15.0652116 76.5286128,14.6335045 C76.4357139,14.2017975 76.2745092,13.8356717 76.0449941,13.5351162 C75.815479,13.2345607 75.5012665,12.9995844 75.1023474,12.8301804 C74.7034282,12.6607764 74.1924915,12.5760756 73.5695219,12.5760756 C73.1323502,12.5760756 72.6842559,12.6880992 72.2252257,12.9121497 C71.7661954,13.1362001 71.3891405,13.4941291 71.0940496,13.9859472 L71.0448681,13.9859472 L71.0448681,9.576 L68.7169405,9.576 Z M80.832,11.4940811 L80.832,9.576 L78.5040725,9.576 L78.5040725,11.4940811 L80.832,11.4940811 Z M78.5040725,12.8055896 L78.5040725,21.2812131 L80.832,21.2812131 L80.832,12.8055896 L78.5040725,12.8055896 Z" id="Toshi"></path>
                <path d="M16,32 C7.163444,32 0,24.836556 0,16 C0,7.163444 7.163444,0 16,0 C24.836556,0 32,7.163444 32,16 C32,24.836556 24.836556,32 16,32 Z M11.9803639,10.7906977 C11.3233294,10.7906977 10.7906977,11.3233294 10.7906977,11.9803639 L10.7906977,20.0196361 C10.7906977,20.6766706 11.3233294,21.2093023 11.9803639,21.2093023 L11.9803639,21.2093023 L20.0196361,21.2093023 C20.6766706,21.2093023 21.2093023,20.6766706 21.2093023,20.0196361 L21.2093023,20.0196361 L21.2093023,11.9803639 C21.2093023,11.3233294 20.6766706,10.7906977 20.0196361,10.7906977 L11.9803639,10.7906977 Z" id="Combined-Shape"></path>
            </g>
        </g>
    </g>
</svg>