<svg xmlns="http://www.w3.org/2000/svg" width="21" height="16" viewBox="0 0 21 16">
  <path fill="#181A20" d="M18.8469141,3.981793 C18.8553852,4.155259 18.8610327,4.328726 18.8610327,4.506166 C18.8610327,9.843913 14.5280355,16 6.6032674,16 C4.1706333,16 1.9074223,15.332616 0,14.183233 C0.3388463,14.221634 0.6791045,14.240172 1.0292457,14.240172 C3.0467931,14.240172 4.9048003,13.595299 6.3787818,12.5108 C4.4939492,12.480344 2.9041952,11.309774 2.3549818,9.706199 C2.6175877,9.752545 2.8886648,9.777704 3.1653893,9.777704 C3.5564744,9.777704 3.9376765,9.730034 4.2977007,9.636018 C2.3281565,9.267897 0.8442921,7.632542 0.8442921,5.675412 L0.8442921,5.625093 C1.4259782,5.928329 2.0909641,6.108417 2.7968939,6.132252 C1.6419927,5.406604 0.8824123,4.17115 0.8824123,2.768849 C0.8824123,2.027311 1.0941912,1.334768 1.4655103,0.738889 C3.5889472,3.183315 6.7613957,4.790863 10.3432836,4.960358 C10.2670432,4.663742 10.2303348,4.356534 10.2303348,4.038732 C10.2303348,1.807498 12.1603469,0 14.5379185,0 C15.7789431,0 16.8957241,0.489945 17.6849536,1.273856 C18.6619605,1.093768 19.5867285,0.758752 20.4183138,0.296615 C20.0964098,1.236779 19.4130698,2.031284 18.5264219,2.531822 C19.3961275,2.433833 20.2277128,2.215344 21,1.896218 C20.416902,2.699992 19.6883824,3.411073 18.8469141,3.981793 L18.8469141,3.981793 Z"/>
</svg>
