<svg xmlns="http://www.w3.org/2000/svg" width="25" height="29" viewBox="0 0 25 29">
  <path fill="#00AE64" fill-rule="evenodd" d="M402.671875,20.25 C404,20.25 405.0625,21.3291016 405.0625,22.640625 C405.0625,23.4707031 404.647461,24.2011719 404,24.6328125 L404,26.625 L401.34375,26.625 L401.34375,24.6328125 C400.696289,24.2011719 400.28125,23.4707031 400.28125,22.640625 C400.28125,21.3291016 401.34375,20.25 402.671875,20.25 Z M411.4375,14.9541016 C413.213867,15.0869141 414.625,16.5810547 414.625,18.390625 L414.625,27.953125 C414.625,29.8623047 413.081055,31.40625 411.171875,31.40625 L394.171875,31.40625 C392.262695,31.40625 390.71875,29.8623047 390.71875,27.953125 L390.71875,18.390625 C390.71875,16.5810547 392.129883,15.0869141 393.90625,14.9541016 L393.90625,12.546875 C393.90625,7.71582031 397.84082,3.78125 402.671875,3.78125 C407.50293,3.78125 411.4375,7.71582031 411.4375,12.546875 L411.4375,14.9541016 Z M411.96875,27.953125 L411.96875,18.390625 C411.96875,17.9589844 411.603516,17.59375 411.171875,17.59375 L398.6875,17.59375 L398.6875,14.9375 L408.78125,14.9375 L408.78125,12.546875 C408.78125,9.17675781 406.041992,6.4375 402.671875,6.4375 C399.301758,6.4375 396.5625,9.17675781 396.5625,12.546875 L396.5625,17.59375 L394.171875,17.59375 C393.740234,17.59375 393.375,17.9589844 393.375,18.390625 L393.375,27.953125 C393.375,28.3847656 393.740234,28.75 394.171875,28.75 L411.171875,28.75 C411.603516,28.75 411.96875,28.3847656 411.96875,27.953125 Z" transform="translate(-390 -3)"/>
</svg>
