<svg xmlns="http://www.w3.org/2000/svg" width="34" height="34" viewBox="0 0 34 34">
  <path fill="#00AE64" fill-rule="evenodd" d="M27.828125,20.1875 C31.4970703,20.1875 34.46875,23.1757812 34.46875,26.828125 C34.46875,30.4804688 31.4970703,33.46875 27.828125,33.46875 C24.1757812,33.46875 21.1875,30.4804688 21.1875,26.828125 C21.1875,25.5830078 21.5361328,24.4042969 22.1503906,23.4082031 L17.734375,20.0048828 L13.3183594,23.4082031 C13.9326172,24.4042969 14.28125,25.5830078 14.28125,26.828125 C14.28125,30.4804688 11.3095703,33.46875 7.640625,33.46875 C3.97167969,33.46875 1,30.4804688 1,26.828125 C1,23.1757812 3.97167969,20.1875 7.640625,20.1875 C9.08496094,20.1875 10.4296875,20.6523438 11.5253906,21.4492188 L16.40625,17.6806641 L16.40625,13.6796875 C13.3847656,13.0654297 11.09375,10.3759766 11.09375,7.171875 C11.09375,3.50292969 14.0654297,0.53125 17.734375,0.53125 C21.4033203,0.53125 24.375,3.50292969 24.375,7.171875 C24.375,10.3759766 22.0839844,13.0654297 19.0625,13.6796875 L19.0625,17.6806641 L23.9433594,21.4492188 C25.0390625,20.6523438 26.3837891,20.1875 27.828125,20.1875 Z M13.7167969,7.171875 C13.7167969,9.39648438 15.5097656,11.1894531 17.734375,11.1894531 C19.9589844,11.1894531 21.7519531,9.39648438 21.7519531,7.171875 C21.7519531,4.94726562 19.9589844,3.15429688 17.734375,3.15429688 C15.5097656,3.15429688 13.7167969,4.94726562 13.7167969,7.171875 Z M7.640625,30.8457031 C9.86523438,30.8457031 11.6582031,29.0527344 11.6582031,26.828125 C11.6582031,24.6035156 9.86523438,22.8105469 7.640625,22.8105469 C5.41601562,22.8105469 3.62304688,24.6035156 3.62304688,26.828125 C3.62304688,29.0527344 5.41601562,30.8457031 7.640625,30.8457031 Z M27.828125,30.8457031 C30.0527344,30.8457031 31.8457031,29.0527344 31.8457031,26.828125 C31.8457031,24.6035156 30.0527344,22.8105469 27.828125,22.8105469 C25.6035156,22.8105469 23.8105469,24.6035156 23.8105469,26.828125 C23.8105469,29.0527344 25.6035156,30.8457031 27.828125,30.8457031 Z" transform="translate(-1)"/>
</svg>
