<svg xmlns="http://www.w3.org/2000/svg" width="27" height="27" viewBox="0 0 27 27">
  <path fill="#00AE64" fill-rule="evenodd" d="M797.462891,8.06835938 C799.919922,10.5253906 801.28125,13.7958984 801.28125,17.265625 C801.28125,20.7353516 799.919922,24.0058594 797.462891,26.4628906 C795.005859,28.9199219 791.735352,30.28125 788.265625,30.28125 C784.795898,30.28125 781.525391,28.9199219 779.068359,26.4628906 C776.611328,24.0058594 775.25,20.7353516 775.25,17.265625 C775.25,13.7958984 776.611328,10.5253906 779.068359,8.06835938 C781.525391,5.61132812 784.779297,4.25 788.265625,4.25 C791.735352,4.25 795.005859,5.61132812 797.462891,8.06835938 Z M788.265625,6.80664062 L788.232422,6.80664062 C787.717773,6.83984375 786.887695,7.53710938 786.107422,9.4296875 C785.410156,11.1894531 784.961914,13.4638672 784.845703,15.9375 L791.685547,15.9375 C791.569336,13.4638672 791.137695,11.1894531 790.423828,9.4296875 C790.390625,9.34667969 790.34082,9.26367188 790.307617,9.19726562 C791.536133,9.49609375 792.665039,10.0771484 793.644531,10.890625 C794.026367,12.4345703 794.258789,14.1445312 794.341797,15.9375 L798.641602,15.9375 C798.342773,13.6464844 797.330078,11.5214844 795.669922,9.86132812 C793.694336,7.88574219 791.054688,6.80664062 788.265625,6.80664062 Z M788.265625,27.7246094 C788.763672,27.7246094 789.626953,27.0439453 790.423828,25.1015625 C791.137695,23.3417969 791.569336,21.0673828 791.685547,18.59375 L784.845703,18.59375 C784.961914,21.0673828 785.410156,23.3417969 786.107422,25.1015625 C786.904297,27.0439453 787.767578,27.7246094 788.265625,27.7246094 Z M780.861328,9.86132812 C779.201172,11.5214844 778.188477,13.6464844 777.889648,15.9375 L782.189453,15.9375 C782.305664,13.1484375 782.820312,10.5419922 783.650391,8.5 C783.766602,8.21777344 783.882812,7.95214844 784.015625,7.703125 C782.853516,8.234375 781.791016,8.94824219 780.861328,9.86132812 Z M777.889648,18.59375 C778.188477,20.8847656 779.201172,23.0097656 780.861328,24.6699219 C781.791016,25.5830078 782.853516,26.3134766 784.015625,26.8115234 C783.882812,26.5791016 783.766602,26.3134766 783.650391,26.03125 C782.820312,23.9892578 782.305664,21.3828125 782.189453,18.59375 L777.889648,18.59375 Z M795.669922,24.6699219 C797.330078,23.0097656 798.342773,20.8847656 798.641602,18.59375 L794.341797,18.59375 C794.225586,21.3828125 793.710938,23.9892578 792.880859,26.03125 C792.764648,26.3134766 792.648438,26.5791016 792.515625,26.8115234 C793.677734,26.3134766 794.740234,25.5830078 795.669922,24.6699219 Z" transform="translate(-775 -4)"/>
</svg>
